<svg xmlns="http://www.w3.org/2000/svg" version="1.1" width="600px" height="600px" viewBox="0 0 200 200" style="overflow:hidden!important;"><g id="svga-group-wrapper"><g id="svga-group-backs-single"><path id="SvgjsPath9107" d="M0 0h200v200H0V0z" fill="#ecf0f1" stroke-width="none" opacity="1"></path></g><g id="svga-group-humanwrap-move" transform="matrix(1,0,0,1,0,0)"><g id="svga-group-humanwrap"><g id="svga-group-hair-back-move" transform="matrix(1,0,0,1,0,0)"><g id="svga-group-hair-back"></g></g><g id="svga-group-humanbody-back"><path id="SvgjsPath9052" d="M166.5 181.1c-10.9-6.6-27.6-8.4-35-12.1-4.9-2.5-9.1-4.7-8.9-17.8s1.9-42.4 1.9-42.4H75.4s1.6 29.4 1.9 42.4-4.2 15.6-8.9 17.8c-7.4 3.5-24.1 5.4-35 12.1-10.8 6.6-10 18.9-10 18.9v19.7h153.3V200c-.1 0 .7-12.3-10.2-18.9z" fill="#f0c7b1" stroke-width="none" opacity="1" stroke="none"></path></g><g id="svga-group-chinshadow-single"><path id="SvgjsPath9048" d="M75.7 162.4c5.4 3.4 13.9 4.6 24.3 4.6 10.4.1 18.9-1.1 24.3-4.5-1.1-2.5-1.8-6-1.7-11.3.2-13.1 1.9-42.4 1.9-42.4H75.4s1.6 29.4 1.9 42.4c.1 5.2-.5 8.7-1.6 11.2z" fill="#d19271" stroke-width="none" opacity="0.65" stroke="none"></path></g><g id="svga-group-humanbody-front"><path id="SvgjsPath9053" d="M78.7 156.8c.5 4.8 1.7 9.4 3.1 13.9.8 2.3 1.6 4.6 2.6 6.9.8 2 1.7 4.2 3.1 5.9.3.4 1 0 .9-.5-.5-2.2-1.6-4.3-2.4-6.4-.9-2.2-1.7-4.4-2.5-6.6-1.5-4.4-2.8-8.9-4.1-13.3-.2-.4-.8-.3-.7.1zm41.3-1c-1.3 8.2-3.9 16.1-5.4 24.2-.1.4.4.5.6.2 3.1-7.7 4.1-16.1 5.1-24.3-.1-.2-.3-.2-.3-.1zm-25.8 11.9c-.9 3.6 1.9 8.6 6.2 7.6.5-.1.4-.8 0-1-1.4-.5-2.9-.9-3.9-2.1-1.1-1.2-1.5-2.9-1.4-4.5 0-.4-.8-.5-.9 0z" fill="#d19271" stroke-width="none" opacity="1" stroke="none"></path><path id="SvgjsPath9054" d="M177.3 219.7c-.1-6.6-.3-13.1-.3-19.7l-.3-.3c.1 0 .1 0 .2.1s.1.2.1.1v-1.4c0-.5-.1-.9-.1-1.4-.1-.9-.3-1.9-.5-2.8-.5-1.8-1.1-3.6-2-5.3-1.7-3.4-4.4-6.2-7.7-8.1-3.6-2.2-7.6-3.8-11.6-5.1-4-1.3-8.1-2.4-12.1-3.5-4-1.2-8.1-2.2-11.8-4.2-1.9-1-3.6-2.1-4.8-3.6-1.2-1.6-1.9-3.5-2.3-5.5-.8-4-.4-8.2-.3-12.4l.7-12.6 1.5-25.2.1-1.4h-1.4c-8.2 0-16.4 0-24.6.1l-24.6.3h-.9l.1.9c.8 11.9 1.6 23.8 2.1 35.7.1 3 .3 6 .2 8.9-.1 2.9-.4 5.9-1.6 8.6-.6 1.3-1.4 2.5-2.4 3.5s-2.3 1.8-3.6 2.4c-2.6 1.3-5.4 2.2-8.3 3-5.8 1.5-11.6 2.8-17.3 4.7-2.8.9-5.7 2-8.4 3.4-1.3.7-2.7 1.4-4 2.4-1.3.9-2.4 1.9-3.5 3.1-2.1 2.3-3.6 5.2-4.5 8.1-.5 1.5-.8 3-1 4.6-.1.8-.1 1.6-.1 2.4v2.3l-.2 17.9v1.3h1.4l38.3.2c12.8.1 25.5.1 38.3 0 12.8-.1 25.6-.1 38.3-.3 12.8-.2 25.6-.5 38.3-.7h.6v-.5zm-77.2-1.6H61.8l-37 .2-.1-16.6v-2.2c0-.7 0-1.4.1-2.1.1-1.4.4-2.8.8-4.2.8-2.7 2.1-5.3 3.9-7.5.9-1.1 2-2.1 3.1-2.9 1.1-.9 2.4-1.6 3.7-2.3 2.6-1.4 5.3-2.5 8.1-3.5 5.6-2 11.4-3.4 17.1-5.1 2.9-.8 5.8-1.7 8.5-3.1 1.3-.7 2.7-1.5 3.8-2.6 1.1-1.1 2-2.4 2.6-3.9 1.2-2.9 1.5-5.9 1.6-8.9 0-3-.1-6-.2-9l-1.3-34.8 23.5.4c7.7.1 15.4.1 23.1.1-.4 7.9-.8 15.9-1.1 23.8-.2 4.2-.2 8.4-.3 12.6 0 4.2-.2 8.5.8 12.8.5 2.1 1.3 4.2 2.8 6 1.4 1.7 3.4 2.9 5.3 3.8 3.9 1.9 8 2.8 12.1 3.8s8.2 2 12.2 3.3c4 1.3 7.9 2.8 11.5 5 3.2 1.9 5.8 4.7 7.5 8 .9 1.6 1.5 3.4 1.9 5.2.2.9.4 1.8.4 2.7.1.5.1.9.1 1.4V200l-.3 19c-12.6-.2-25.1-.5-37.7-.7-12.7-.1-25.5-.1-38.2-.2z" fill="#c27b55" stroke-width="none" opacity="1" stroke="none"></path></g><g id="svga-group-clothes-single"><path id="SvgjsPath9516" d="M179.3 220.1c0-17.5-1.6-26.7-1.6-26.7-3.2-15.2-21.5-18.1-30.1-20.5-2.8-.8-8.2-1.4-8.2-1.4-4.8 5.3-9.9 9.8-15.9 15.4-7.5 7-14.9 13-21.8 18.1-6.4-4-13.8-9.3-21.4-16.1-7.7-6.9-13.1-12.8-17.9-18.8-3.1.5-7.1.9-10.7 1.7-8.7 1.9-26.5 7.6-29.5 21.6 0 0-1.6 9.2-1.6 26.7h158.7z" fill="#eef6f8" stroke-width="none" opacity="1"></path><path id="SvgjsPath9517" d="M179.6 210.9c0-3.1-.1-6.1-.3-9.2-.1-1.5-.2-3.1-.3-4.6l-.2-2.3-.1-1.2c0-.4-.2-.8-.3-1.2-.2-.8-.4-1.6-.7-2.3l-.9-2.2-1.2-2.1c-.4-.7-1-1.3-1.5-1.9-2.1-2.4-4.7-4.4-7.5-5.9s-5.7-2.6-8.7-3.6c-3-.9-6-1.7-8.9-2.5-2.9-.8-6.1-.8-9.1-1.7-.5-.1-1 0-1.4.4-5.8 6.3-11.5 11.3-17.8 17.1-6.1 5.6-12.4 11.1-19.1 16.1-3.6-2.2-7.2-4.6-10.6-7.1-3.6-2.6-7.1-5.4-10.5-8.4-3.4-3-6.6-6.1-9.7-9.3-3.1-3.3-5.2-5.8-8-9.3-.1-.1-.3-.2-.5-.2-3.2.6-6.9.8-10 1.5-3.1.6-6.2 1.4-9.2 2.4-6 2.1-11.9 4.9-16.5 9.7-2.3 2.4-4.1 5.2-5.1 8.4l-.4 1.2c-.1.2-.1.4-.2.6l.1.7-.3 2.4c-.2 1.6-.4 3.2-.5 4.7-.6 6.3-.8 12.6-.9 19 0 .8.6 1.4 1.4 1.4l40 .2c13.3 0 26.7-.1 39.9-.2l39.7-.5 19.7-.3 19.5-.4c.1-1.5.1-3.2.1-4.7v-4.7zM23 196.6c.1-.8.2-1.6.3-2.3l.1-.6c0-.2.1-.3.1-.5l.3-1.1c.8-2.8 2.4-5.5 4.4-7.7 1.5-1.6 3.2-3.1 5-4.4 1.1 1.1 2 2.4 2.8 3.7.9 1.5 1.7 3 2.4 4.6 1.4 3.2 2.4 6.5 3.2 9.9.4 1.7.8 3.4 1.1 5.1.3 1.7.6 3.4.9 5.2.5 3.3 1 6.6 1.5 10l-22.8.1c0-5.8.1-11.6.5-17.4-.1-1.4 0-3 .2-4.6zm116.1 22.7-39.7-.5c-13.2-.1-26.3-.2-39.4-.2l-15 .1c.3-3.4.2-6.8 0-10.2-.3-3.5-.8-7.1-1.6-10.6-.4-1.7-.9-3.5-1.5-5.2-.6-1.7-1.3-3.4-2.2-4.9-.8-1.6-1.8-3.1-3-4.5-1-1.2-2.1-2.4-3.4-3.2 3.2-2.2 6.8-3.9 10.4-5.2 2.9-1.1 5.9-1.9 9-2.6 3-.7 6.7-.9 9.6-1.5 2.8 3.4 4.9 5.8 7.9 9 3.1 3.3 6.3 6.4 9.7 9.5 6.7 6.1 13.8 11.6 21.4 16.6.3.2.7.2 1 0 7-5 13.8-10.3 20.2-16.1 3.2-2.9 6.4-5.8 9.4-8.9 2.9-2.8 5.3-4.8 8-7.8 2.7.8 5.7.7 8.4 1.4 3 .8 6 1.4 8.9 2.3 2.9.9 5.7 1.9 8.4 3.3.3.1.5.3.8.4-1.1.8-2.1 1.8-2.9 2.9-1.1 1.4-2.1 2.9-3 4.5-.9 1.6-1.6 3.2-2.2 4.9-.6 1.7-1.1 3.4-1.5 5.2-.8 3.5-1.3 7-1.6 10.6-.2 3.5-.3 7.1 0 10.6l1.5-10.5c.3-1.7.6-3.5.9-5.2.3-1.7.6-3.4 1.1-5.1.8-3.4 1.8-6.7 3.2-9.9.7-1.6 1.5-3.1 2.4-4.6.7-1.2 1.5-2.3 2.4-3.3 2.2 1.2 4.3 2.8 6.1 4.6.5.6 1 1.1 1.4 1.7l1.2 1.8.9 2c.3.7.4 1.4.7 2.1.1.4.2.7.3 1.1l.2 1.1.3 2.3.5 4.6c.3 3 .6 6.1.7 9.2l.5 9.1-40.4-.9zm-4.2-34.6c-3.4 3.3-6.9 6.5-10.4 9.5-7.1 6.1-14.3 11.9-21.9 17.3-4.3-2.5-8.5-5.3-12.5-8.3-4.1-3.1-8-6.3-11.8-9.7-3.8-3.4-7.5-6.9-11.1-10.6-3.6-3.6-7.1-7.4-10.4-11.3 3.2 4 6.5 7.9 10 11.6 3.5 3.7 7.2 7.4 10.9 10.8 3.8 3.5 7.8 6.7 11.8 9.9 4.1 3.1 8.4 6 12.8 8.6.2.1.4.1.5 0 3.8-2.8 7.6-5.6 11.3-8.6 3.7-3 7.3-6 10.8-9.2 3.5-3.1 6.9-6.4 10.3-9.8 3.3-3.4 6.5-6.9 9.5-10.4-3.1 3.5-6.3 6.9-9.8 10.2z" fill="#a5cfd9" stroke-width="none" opacity="1"></path></g><g id="svga-group-head" transform="matrix(1,0,0,1,0,0)"><g id="svga-group-ears-left-move" transform="matrix(1,0,0,1,0,0)"><g id="svga-group-ears-left"><path id="SvgjsPath8944" d="M58.8 91.7s-2.6-4.9-5.3-5.7-4.4.7-3.9 6.6 5.2 23.2 10.6 22.2c5.4-1.1.9-19.6-1.4-23.1z" fill="#f0c7b1" stroke-width="none" opacity="1" stroke="none"></path><path id="SvgjsPath8945" d="M59.8 93.6c.3.7.6 1.5.8 2.2.5 1.5 1 3.1 1.4 4.8.4 1.6.7 3.4.9 5.2.1.9.2 1.8.2 2.7 0 .9 0 1.8-.1 2.8-.1.9-.3 1.8-.7 2.5-.3.7-.8 1.2-1.2 1.5-.9.5-1.9.4-2.8-.1-.9-.5-1.8-1.5-2.6-2.7s-1.4-2.5-2-4c-.6-1.4-1.1-3-1.6-4.5s-1-3.1-1.4-4.7-.8-3.3-1.1-5-.5-3.6-.3-5.4c.1-.9.3-1.8.7-2.4s.8-1 1.3-1.2.9-.2 1.4-.1.9.3 1.4.6c.9.6 1.7 1.5 2.5 2.5s1.5 2.2 2.2 3.4c.4.5.7 1.2 1 1.9zm-3.2-5c-.8-.9-1.6-1.6-2.5-1.9-.8-.3-1.7-.4-2.5-.1-.4.2-.7.4-1 .9s-.5 1.1-.6 1.8c-.2 1.4-.2 3.2.1 4.8.2 1.7.5 3.3.9 5 .8 3.2 1.8 6.3 3.1 8.9.6 1.3 1.3 2.5 2 3.5s1.5 1.8 2.3 2.2c.4.2.8.3 1.2.3s.8-.1 1.2-.4c.3-.2.7-.6.9-1.1s.4-1.2.5-1.9c.2-1.4.1-3.1 0-4.8-.1-1.7-.4-3.3-.7-5s-.7-3.3-1.1-4.9c-.4-1.6-1-3.1-1.7-4.3-.6-1-1.3-2.1-2.1-3z" fill="#e1ac8f" stroke-width="none" opacity="1" stroke="none"></path><path id="SvgjsPath8946" d="M52.4 89.6c2.3 1.5 4.4 5.7 5.4 9.9v.1c0 .3-.2.4-.2.1-.4-1.2-.9-1.2-1.5 0-.1.8-.1 1.5.1 2.3.2.7.4 1.4.7 2 .5 1.2 1.2 2.1 1.8 3.1.2.3 0 .7-.2.6-1.4-1.1-3.4-4.7-3-7.8.2-1.5 1-2.3 1.6-1.7-.8-2.1-1.7-4-2.8-5.5-.6-.8-2-2.7-2.7-2.4-1.3.6-.6 4.8-.5 6.6 0 .3-.2.4-.3.1-.7-3.3-.8-9 1.6-7.4z" fill="#d19271" stroke-width="none" opacity="1" stroke="none"></path><path id="SvgjsPath8947" d="M58 108.6c-2.4-.9-4.2-4.8-5.2-9-.6-2.6-1.8-8.6.5-8.5.2 0 .3.5.1.6-2.2 1.1.2 9.2.9 11.1 1 2.6 2.2 4.4 3.8 5.4.1.1 0 .5-.1.4z" fill="#d19271" stroke-width="none" opacity="1" stroke="none"></path></g></g><g id="svga-group-ears-right-move" transform="matrix(1,0,0,1,0,0)"><g id="svga-group-ears-right"><path id="SvgjsPath8948" d="M141.2 91.7s2.6-4.9 5.3-5.7 4.4.7 3.9 6.6-5.2 23.2-10.6 22.2c-5.4-1.1-.9-19.6 1.4-23.1z" fill="#f0c7b1" stroke-width="none" opacity="1" stroke="none"></path><path id="SvgjsPath8949" d="M141.1 91.7c.7-1.2 1.4-2.4 2.2-3.4s1.6-1.9 2.5-2.5c.5-.3.9-.5 1.4-.6s.9-.1 1.4.1.9.5 1.3 1.2c.4.6.6 1.5.7 2.4.2 1.8 0 3.7-.3 5.4-.3 1.7-.7 3.4-1.1 5-.4 1.6-.9 3.2-1.4 4.7s-1 3.1-1.6 4.5-1.3 2.8-2 4c-.8 1.2-1.6 2.2-2.6 2.7-.9.5-1.9.7-2.8.1-.5-.3-.9-.8-1.2-1.5s-.5-1.6-.7-2.5c-.1-.9-.1-1.8-.1-2.8 0-.9.1-1.8.2-2.7.2-1.8.5-3.5.9-5.2s.9-3.2 1.4-4.8c.3-.8.5-1.5.8-2.2.4-.7.7-1.4 1-1.9zm.1.1c-.7 1.2-1.2 2.7-1.7 4.3-.4 1.6-.8 3.2-1.1 4.9-.3 1.7-.5 3.3-.7 5-.1 1.6-.2 3.3 0 4.8.1.7.3 1.4.5 1.9s.6.9.9 1.1c.3.3.8.3 1.2.4.4 0 .8-.1 1.2-.3.8-.4 1.6-1.2 2.3-2.2s1.4-2.2 2-3.5c1.3-2.6 2.3-5.7 3.1-8.9.4-1.6.7-3.3.9-5 .2-1.6.3-3.4.1-4.8-.1-.7-.3-1.3-.6-1.8-.3-.4-.6-.7-1-.9-.8-.3-1.7-.2-2.5.1-.8.4-1.7 1-2.5 1.9-.7.7-1.4 1.8-2.1 3z" fill="#e1ac8f" stroke-width="none" opacity="1" stroke="none"></path><path id="SvgjsPath8950" d="M147.6 89.6c-2.3 1.5-4.4 5.7-5.4 9.9v.1c0 .3.2.4.2.1.4-1.2.9-1.2 1.5 0 .1.8.1 1.5-.1 2.3-.2.7-.4 1.4-.7 2-.5 1.2-1.2 2.1-1.8 3.1-.2.3 0 .7.2.6 1.4-1.1 3.4-4.7 3-7.8-.2-1.5-1-2.3-1.6-1.7.8-2.1 1.7-4 2.8-5.5.6-.8 2-2.7 2.7-2.4 1.3.6.6 4.8.5 6.6 0 .3.2.4.3.1.7-3.3.8-9-1.6-7.4z" fill="#d19271" stroke-width="none" opacity="1" stroke="none"></path><path id="SvgjsPath8951" d="M142 108.6c2.4-.9 4.2-4.8 5.2-9 .6-2.5 1.8-8.5-.5-8.5-.2 0-.3.5-.1.6 2.2 1.1-.2 9.2-.9 11.1-1 2.6-2.2 4.4-3.8 5.4-.1.1 0 .5.1.4z" fill="#d19271" stroke-width="none" opacity="1" stroke="none"></path></g></g><g id="svga-group-faceshape-wrap"><g id="svga-group-faceshape-single"><path id="SvgjsPath9034" d="M143.6 82.2v-.3C142.3 52 122.5 35.3 100 35.3S57.8 52.1 56.5 82.1v.3c0 1.8.3 11.9 2.6 24.5 2.6 13.9 7.9 28.3 11.5 35.9 3.5 7.7 14.6 10.1 29.4 10.1s25.8-2.4 29.4-10.1c3.5-7.7 8.9-22 11.5-35.9 2.3-12.7 2.7-22.9 2.7-24.7z" fill="#f0c7b1" stroke-width="none" opacity="1" stroke="none"></path><path id="SvgjsPath9035" d="M70.6 142.8c3.5 7.7 14.6 10.1 29.4 10.1s25.8-2.4 29.4-10.1c3.5-7.7 8.9-22 11.5-35.9 2.3-12.7 2.7-22.9 2.7-24.7v-.3C142.3 52 122.5 35.3 100 35.3S57.8 52.1 56.5 82.1v.3c0 1.8.3 11.9 2.6 24.5 2.6 13.9 7.9 28.3 11.5 35.9zM58.1 75.5c.3-1.7.5-3.4.9-5l.7-2.5c.2-.8.4-1.7.7-2.4l.9-2.4c.2-.4.3-.8.5-1.2l.6-1.1 1.1-2.3c.4-.8.9-1.5 1.3-2.2.5-.7.9-1.4 1.4-2.1l1.6-2 .8-1 .9-.9 1.8-1.8c.6-.6 1.3-1.1 1.9-1.6.7-.5 1.2-1.1 2-1.6 1.4-.9 2.7-1.9 4.2-2.6 2.9-1.7 6-2.7 9.2-3.7 6.4-1.6 13.1-1.8 19.6-.7 6.4 1.3 12.7 3.8 18 7.9 5.3 4.1 9.6 9.5 12.4 15.8 2.8 6.2 4.7 13.3 4.9 20.2-.1 6.9-1.1 13.6-2.4 20.4-1.2 6.8-3.3 13.4-5.6 19.8-2.4 6.4-5 12.8-7.9 19-.2.4-1 2-2.5 3.3-1.1.9-2.3 1.7-3.7 2.4-2.8 1.2-6 2-9.3 2.4-6.6.9-13.5.9-20.2.4-3.3-.2-6.6-.7-9.7-1.6-3.1-.9-5.9-2.2-7.8-4.3-.4-.5-.9-1.1-1.2-1.7l-1.1-2.3c-.7-1.5-4.6-11.1-5.8-14.3-2.3-6.5-4.4-13-5.8-19.7-1.5-6.6-2.5-13.5-2.8-20.4-.3-3.4.1-6.8.4-10.2z" fill="#c27b55" stroke-width="none" opacity="1" stroke="none"></path></g></g><g id="svga-group-mouth-single-move" transform="matrix(1,0,0,1,0,0)"><g id="svga-group-mouth-single"><path id="SvgjsPath9416" d="M89.47 129.26c7.15 4.25 15.5 3.75 21.52.68.34-.17.08-.61-.24-.56-3.56.54-6.71 1.36-10.36 1.39-3.63.03-7.5-.8-10.8-1.91-.31-.1-.22.35-.12.4z" fill="#d19271" stroke-width="none" opacity="1" transform="translate(0 2)"></path><path id="SvgjsPath9417" d="M108.72 128.48c-2.29.41-4.47 1.09-6.8 1.27-2.34.18-4.58-.1-6.9-.33-.24-.02-.29.35-.08.41 4.27 1.17 9.93 1.12 13.97-.81.32-.15.12-.59-.19-.54z" fill="#f8d5c3" stroke-width="none" opacity="1" transform="translate(0 2)"></path><path id="SvgjsPath9418" d="M99.53 122.55c-3.63-.05-7.67.28-9.65.6-3.06.5-4.82-.23-4.95.4-.09.41 5.65 1.29 7.28 1.43 1.63.13 4.66 1.62 7.09 1.88 2.43.27 4.02-.95 5.95-1.39 1.93-.43 6.6-.78 8.04-1 1.9-.26 3.41-1.29.32-1.14-.46.02-.93.01-1.39-.03-2.66-.26-8.31-.69-12.69-.75z" fill="#da7c87" stroke-width="none" opacity="1" transform="translate(0 2)"></path></g></g><g id="svga-group-eyes-left-move" transform="matrix(1,0,0,1,0,0)"><g id="svga-group-eyes-left"><g id="svga-group-eyesback-left"><path id="SvgjsPath8990" d="M89.5 94.7s-.9-1.9-2.9-3.3c-2-1.3-4.8-2.7-9-1.7-4.2 1-6.6 3.3-8.1 5.3 0 0 .4.5 1.4 1.1 1 .6 4.7 2.7 8.8 2.5 4.1-.2 7.8-2.5 8.5-2.9.7-.3 1.3-1 1.3-1z" fill="#ffffff" stroke-width="none" opacity="1"></path></g><g id="svga-group-eyesiriswrapper-left" transform="matrix(1,0,0,1,0,0)"><g id="svga-group-eyesiriscontrol-left" transform="matrix(1,0,0,1,0,0)"><g id="svga-group-eyesiris-left"><path id="SvgjsPath9310" d="M80.1 87.8c3.2 0 5.7 2.6 5.7 5.7s-2.6 5.7-5.7 5.7-5.7-2.6-5.7-5.7 2.5-5.7 5.7-5.7z" fill="#706d5c" stroke-width="none" opacity="1" stroke="none"></path><path id="SvgjsPath9311" d="M80.1 88.1c3 0 5.5 2.4 5.5 5.5 0 3-2.4 5.5-5.5 5.5-3 0-5.5-2.4-5.5-5.5s2.4-5.5 5.5-5.5m0-.6c-3.3 0-6 2.7-6 6s2.7 6 6 6 6-2.7 6-6-2.7-6-6-6z" fill="#514d33" stroke-width="none" opacity="1" stroke="none"></path><path id="SvgjsPath9312" d="M77 95.1c0 1.4.6 2.7 1.4 3.6.5.2 1.1.2 1.6.2 3 0 5.5-2.4 5.5-5.5 0-1.1-.3-2.2-.9-3-.7-.4-1.5-.6-2.4-.6-2.9.1-5.2 2.5-5.2 5.3z" fill="#7f7e75" stroke-width="none" opacity="1" stroke="none"></path><path id="SvgjsPath9313" d="M80.1 90.6c1.6 0 2.9 1.3 2.9 2.9s-1.3 2.9-2.9 2.9-2.9-1.3-2.9-2.9 1.2-2.9 2.9-2.9z" fill="#000000" stroke-width="none" opacity="1"></path><path id="SvgjsPath9314" d="M78.7 90.5c.6 0 1 .5 1 1s-.5 1-1 1-1-.5-1-1 .5-1 1-1zm3.4 4.7c.2 0 .4.2.4.4s-.2.4-.4.4-.4-.2-.4-.4.2-.4.4-.4z" fill="#ffffff" stroke-width="none" opacity="1"></path><path id="SvgjsPath9315" d="M80.1 99c.3 0 .6 0 .8-.1-.2 0-.4-.2-.4-.4-.1.3-.3.4-.4.5-.3 0-.5-.2-.6-.4-.1.2-.4.3-.6.3-.2-.1-.4-.3-.4-.5-.2.2-.4.2-.7.1s-.4-.3-.3-.6c-.2.2-.5.1-.7 0s-.2-.5-.1-.7c-.2.2-.5.2-.7 0-.2-.2-.2-.5 0-.7-.3 0-.5-.1-.7-.3.8 1.6 2.6 2.8 4.8 2.8zm-5-3.2zm9.5.7c-.1.1-.3.2-.5.2.1.4-.4.9-.8.8.1.2 0 .5-.2.6-.2.1-.5.1-.6 0 0 .2-.2.5-.4.5-.2.1-.5 0-.6-.2 0 .2-.1.4-.2.5 1.3-.3 2.5-1.2 3.3-2.4zm-2-7.6c.3-.1.6.2.6.5.4-.2.8.3.7.6.2-.1.4 0 .5.2.1.2.1.4-.1.5.2 0 .5.1.6.3s.1.5-.1.7c.2 0 .5.2.5.4s0 .5-.2.6c.2.1.4.3.4.5s-.1.4-.3.5c.2.1.3.3.3.6s-.2.4-.4.4c.3.2.1.8-.3.8.1.1.1.3.1.5.5-.8.8-1.8.8-2.8 0-2.2-1.3-4.1-3.1-4.9-.1.4 0 .5 0 .6zm-.6-.3c.1-.1.2-.1.4 0-.5-.2-1-.4-1.6-.5l-.1.1c.5-.1 1 .1 1.3.4z" fill="#423d22" stroke-width="none" opacity="1" stroke="none"></path></g></g></g><g id="svga-group-eyesfront-left"><path id="SvgjsPath8998" d="M69.4 94.6c0 6.4 4.7 11.5 10.6 11.5s10.6-5.2 10.6-11.5S85.9 83.1 80 83.1s-10.6 5.1-10.6 11.5zm.1.5c1.5-1.9 4-4.3 8.1-5.3s7 .4 9 1.7c2 1.3 2.9 3.3 2.9 3.3s-.6.6-1.3 1.1c-.7.4-4.4 2.7-8.5 2.9-4.1.2-7.8-1.9-8.8-2.5-.9-.7-1.4-1.2-1.4-1.2z" fill="#f0c7b1" stroke-width="none" opacity="1" stroke="none"></path><path id="SvgjsPath8999" d="M89 91.7c-4.4-3.6-9.7-4.3-15-2.6-.2.1-.3-.2-.1-.3 5-2.2 11.3-.9 15.2 2.8.1 0 0 .1-.1.1z" fill="#e1ac8f" stroke-width="none" opacity="1" stroke="none"></path><path id="SvgjsPath9000" d="M68.9 96c.2-.2.5-.4.7-.6 5.1 5.2 15 4.5 20-.4 0 0 0 .1.1.1.1.2.4 0 .3-.2 0-.1-.1-.1-.1-.2.1-.1 0-.3-.2-.3-2.1-3.6-6.3-5.4-10.4-5.2-3.9.2-9.2 2.8-10.7 6.6-.2.3.1.4.3.2zm.9-.8c1.2-1.1 2.2-2.4 3.7-3.3 1.6-1 3.3-1.7 5.2-2 4.2-.7 8.4 1.3 10.6 4.8-2.8 2.1-5.9 3.6-9.5 3.7-3.9.1-6.7-1.3-10-3.2z" fill="#5c5a52" stroke-width="none" opacity="1" stroke="none"></path></g></g></g><g id="svga-group-eyes-right-move" transform="matrix(1,0,0,1,0,0)"><g id="svga-group-eyes-right"><g id="svga-group-eyesback-right"><path id="SvgjsPath8991" d="M110.5 94.7s.9-1.9 2.9-3.3c2-1.3 4.8-2.7 9-1.7 4.2 1 6.6 3.3 8.1 5.3 0 0-.4.5-1.4 1.1-1 .6-4.7 2.7-8.8 2.5-4.1-.2-7.8-2.5-8.5-2.9-.7-.3-1.3-1-1.3-1z" fill="#ffffff" stroke-width="none" opacity="1"></path></g><g id="svga-group-eyesiriswrapper-right" transform="matrix(1,0,0,1,0,0)"><g id="svga-group-eyesiriscontrol-right" transform="matrix(1,0,0,1,0,0)"><g id="svga-group-eyesiris-right"><path id="SvgjsPath9316" d="M119.9 87.8c3.2 0 5.7 2.6 5.7 5.7s-2.6 5.7-5.7 5.7-5.7-2.6-5.7-5.7 2.6-5.7 5.7-5.7z" fill="#706d5c" stroke-width="none" opacity="1" stroke="none"></path><path id="SvgjsPath9317" d="M119.9 88.1c3 0 5.5 2.4 5.5 5.5 0 3-2.4 5.5-5.5 5.5-3 0-5.5-2.4-5.5-5.5.1-3.1 2.5-5.5 5.5-5.5m0-.6c-3.3 0-6 2.7-6 6s2.7 6 6 6 6-2.7 6-6-2.6-6-6-6z" fill="#514d33" stroke-width="none" opacity="1" stroke="none"></path><path id="SvgjsPath9318" d="M116.9 95.1c0 1.4.6 2.7 1.4 3.6.5.2 1.1.2 1.6.2 3 0 5.5-2.4 5.5-5.5 0-1.1-.3-2.2-.9-3-.7-.4-1.5-.6-2.4-.6-2.9.1-5.2 2.5-5.2 5.3z" fill="#7f7e75" stroke-width="none" opacity="1" stroke="none"></path><path id="SvgjsPath9319" d="M119.9 90.6c1.6 0 2.9 1.3 2.9 2.9s-1.3 2.9-2.9 2.9-2.9-1.3-2.9-2.9 1.3-2.9 2.9-2.9z" fill="#000000" stroke-width="none" opacity="1"></path><path id="SvgjsPath9320" d="M118.6 90.5c.6 0 1 .5 1 1s-.5 1-1 1-1-.5-1-1 .5-1 1-1zm3.4 4.7c.2 0 .4.2.4.4s-.2.4-.4.4-.4-.2-.4-.4.2-.4.4-.4z" fill="#ffffff" stroke-width="none" opacity="1"></path><path id="SvgjsPath9321" d="M119.9 99c.3 0 .6 0 .8-.1-.2 0-.4-.2-.4-.4 0 .3-.2.4-.4.5-.3 0-.5-.2-.6-.4-.1.2-.4.3-.6.3-.2-.1-.4-.3-.4-.5-.2.2-.4.2-.7.1s-.4-.3-.3-.6c-.2.2-.5.1-.7 0s-.2-.5-.1-.7c-.2.2-.5.2-.7 0-.2-.2-.2-.5 0-.7-.3 0-.5-.1-.7-.3.9 1.6 2.7 2.8 4.8 2.8zm-4.9-3.2zm9.5.7c-.1.1-.3.2-.5.2.1.4-.4.9-.8.8.1.2 0 .5-.2.6-.2.1-.5.1-.6 0 0 .2-.2.5-.4.5-.2.1-.5 0-.6-.2 0 .2-.1.4-.2.5 1.3-.3 2.5-1.2 3.3-2.4zm-2-7.6c.3-.1.6.2.6.5.4-.2.8.3.7.6.2-.1.4 0 .5.2.1.2.1.4-.1.5.2 0 .5.1.6.3.1.2.1.5-.1.7.2 0 .5.2.5.4s0 .5-.2.6c.2.1.4.3.4.5s-.1.4-.3.5c.2.1.3.3.3.6s-.2.4-.4.4c.3.2.1.8-.3.8.1.1.1.3.1.5.5-.8.8-1.8.8-2.8 0-2.2-1.3-4.1-3.1-4.9-.1.4 0 .5 0 .6zm-.6-.3c.1-.1.2-.1.4 0-.5-.2-1-.4-1.6-.5l-.1.1c.5-.1 1 .1 1.3.4z" fill="#423d22" stroke-width="none" opacity="1" stroke="none"></path></g></g></g><g id="svga-group-eyesfront-right"><path id="SvgjsPath9001" d="M120 83.1c-5.9 0-10.6 5.2-10.6 11.5s4.7 11.5 10.6 11.5 10.6-5.2 10.6-11.5-4.8-11.5-10.6-11.5zm9.1 13.1c-1 .6-4.7 2.7-8.8 2.5-4.1-.2-7.8-2.5-8.5-2.9-.7-.4-1.3-1.1-1.3-1.1s.9-1.9 2.9-3.3c2-1.3 4.8-2.7 9-1.7s6.6 3.3 8.1 5.3c0 .1-.5.6-1.4 1.2z" fill="#f0c7b1" stroke-width="none" opacity="1" stroke="none"></path><path id="SvgjsPath9004" d="M111 91.7c4.4-3.6 9.7-4.3 15-2.6.2.1.3-.2.1-.3-5-2.2-11.3-.9-15.2 2.8-.1 0 0 .1.1.1z" fill="#e1ac8f" stroke-width="none" opacity="1" stroke="none"></path><path id="SvgjsPath9005" d="M131.5 95.8c-1.5-3.8-6.8-6.4-10.7-6.6-4.1-.2-8.3 1.6-10.4 5.2-.1 0-.3.2-.2.3 0 .1-.1.1-.1.2-.1.2.2.4.3.2 0 0 0-.1.1-.1 5 5 14.9 5.7 20 .4.2.2.4.4.7.6.1.2.4.1.3-.2zm-11.3 2.6c-3.6-.1-6.7-1.7-9.5-3.7 2.2-3.6 6.4-5.5 10.6-4.8 1.8.3 3.6 1 5.2 2 1.5.9 2.5 2.2 3.7 3.3-3.3 1.9-6.1 3.3-10 3.2z" fill="#5c5a52" stroke-width="none" opacity="1" stroke="none"></path></g></g></g><g id="svga-group-facehighlight-single"></g><g id="svga-group-eyebrows-left-move" transform="matrix(1,0,0,1,0,0)"><g id="svga-group-eyebrows-left-rotate" transform="matrix(1,1.7453292519943295e-9,-1.7453292519943295e-9,1,1.4446339946516673e-7,-1.3922831954005233e-7)"><g id="svga-group-eyebrows-left"><path id="SvgjsPath8913" d="M71.9 81.2c.2-.2.4-.3.6-.4.2-.1.4-.2.7-.3.4-.2.8-.4 1.3-.5.5-.2 1.4-.5 1.9-.2 1.7-.6 4-.2 5.6.6 2.1.2 4.3.9 5.9 2 .1.1.2.2.2.3l.9.3c1.1.4 2.3.8 3.4 1.3.1 0 .2.1.3.1.4.2.5.7.2.9-.1.1-.1.2-.3.3-.8.6-2 .2-2.9-.1-.8-.3-1.6-.7-2.2-1.3-.8-.3-1.6-.7-2.3-1.2-.1 0-.2-.1-.3-.1-1.4-.2-2.8-.8-4-1.4h-.1c-.7-.2-1.4-.3-2.2-.3-1-.1-2 .2-3-.1h-.1c-.2.1-.4.1-.6.2-.9.3-1.6.4-2.6.4-.1 0-.2-.1-.2-.2H72s-.2-.2-.1-.3z" fill="#6a675e" stroke-width="none" opacity="1" stroke="none"></path><path id="SvgjsPath8914" d="M76.9 79.1c3.4-.3 6.8 1.7 9.9 2.9 1.9.7 5.8 1 6.5 3.3.1.3-.3.5-.5.2-1-1.4-2.6-1.5-4.1-2-1.3-.4-2.6-.9-3.8-1.4-2.7-1.1-5.3-1.7-8-2.4-.3-.2-.2-.6 0-.6z" fill="#797978" stroke-width="none" opacity="1" stroke="none"></path><path id="SvgjsPath8915" d="M94.4 85.2c.3-1.5-2-2.1-3.1-2.5-2.7-1.1-5.4-2.3-8.2-3.1-1.7-.5-3.4-.8-5.1-.8-1.3 0-2.6.1-3.8.5-2.2.7-4.3 1.9-6.2 3.4-1 .6-2 1.3-2.8 2.1-.2.2 0 .4.2.3.1 0 .1 0 .1-.1.1.1.1.1.2.1 1.6-.7 3.1-1.8 4.8-2.5 1.6-.7 3.4-1.1 5.1-1.2h.8c2.1 0 4.1.4 6 1.3 2.6 1.2 5.1 2.8 7.7 3.8.5.2 1 .3 1.6.2 1.3.2 2.4-.3 2.7-1.5zm-16.3-5.4c1.8 0 3.6.4 5.3 1 2.2.8 4.4 1.8 6.6 2.6.4.2 2.6.7 2.8 1.3.2.7-.3.9-.8 1-.3 0-.6-.1-.8-.1-.7-.2-1.3-.6-1.9-.9-3.4-1.7-6.9-3.9-10.8-4.1h-1.1c-1.2 0-2.5.1-3.8.3.6-.2 1.1-.4 1.7-.6.8-.4 1.8-.5 2.8-.5z" fill="#5b5647" stroke-width="none" opacity="1" stroke="none"></path></g></g></g><g id="svga-group-eyebrows-right-move" transform="matrix(1,0,0,1,0,0)"><g id="svga-group-eyebrows-right-rotate" transform="matrix(1,1.7453292519943295e-9,-1.7453292519943295e-9,1,1.445891939511057e-7,-2.0966299985047954e-7)"><g id="svga-group-eyebrows-right"><path id="SvgjsPath8916" d="M128.1 81.2c-.2-.2-.4-.3-.6-.4-.2-.1-.4-.2-.7-.3-.4-.2-.8-.4-1.3-.5-.5-.2-1.4-.5-1.9-.2-1.7-.6-4-.2-5.6.6-2.1.2-4.3.9-5.9 2-.1.1-.2.2-.2.3l-.9.3c-1.1.4-2.3.8-3.4 1.3-.1 0-.2.1-.3.1-.4.2-.5.7-.2.9.1.1.1.2.3.3.8.6 2 .2 2.9-.1.8-.3 1.6-.7 2.2-1.3.8-.3 1.6-.7 2.3-1.2.1 0 .2-.1.3-.1 1.4-.2 2.8-.8 4-1.4h.1c.7-.2 1.4-.3 2.2-.3 1-.1 2 .2 3-.1h.1c.2.1.4.1.6.2.9.3 1.6.4 2.6.4.1 0 .2-.1.2-.2h.1s.2-.2.1-.3z" fill="#6a675e" stroke-width="none" opacity="1" stroke="none"></path><path id="SvgjsPath8917" d="M123.1 79.1c-3.4-.3-6.8 1.7-9.9 2.9-1.9.7-5.8 1-6.5 3.3-.1.3.3.5.5.2 1-1.4 2.6-1.5 4.1-2 1.3-.4 2.6-.9 3.8-1.4 2.7-1.1 5.3-1.7 8-2.4.3-.2.2-.6 0-.6z" fill="#797978" stroke-width="none" opacity="1" stroke="none"></path><path id="SvgjsPath8918" d="M108.2 86.8c.5 0 1.1-.1 1.6-.2 2.7-1 5.1-2.7 7.7-3.8 1.9-.9 3.9-1.3 6-1.3h.8c1.8.1 3.5.6 5.1 1.2 1.7.7 3.1 1.7 4.8 2.5.1 0 .2 0 .2-.1 0 0 .1 0 .1.1.2.1.4-.1.2-.3-.8-.8-1.7-1.5-2.8-2.1-1.9-1.4-4-2.7-6.2-3.4-1.2-.4-2.5-.6-3.8-.5-1.7 0-3.4.3-5.1.8-2.8.8-5.5 2-8.2 3.1-1.1.4-3.4 1-3.1 2.5.4 1.1 1.5 1.6 2.7 1.5zm16.7-6.6c.6.2 1.2.4 1.7.6-1.3-.2-2.6-.4-3.8-.3h-1.1c-3.9.2-7.4 2.4-10.8 4.1-.6.3-1.2.7-1.9.9-.2.1-.5.1-.8.1-.6 0-1.1-.3-.8-1 .2-.6 2.4-1.1 2.8-1.3 2.2-.9 4.4-1.9 6.6-2.6 1.7-.6 3.5-1 5.3-1 .8.1 1.8.2 2.8.5z" fill="#5b5647" stroke-width="none" opacity="1" stroke="none"></path></g></g></g><g id="svga-group-beardwrap"><g id="svga-group-beard-single-move" transform="matrix(1,0,0,1,0,0)"><g id="svga-group-beard-single"></g></g></g><g id="svga-group-mustache-single-move" transform="matrix(1,0,0,1,0,0)"><g id="svga-group-mustache-single"></g></g><g id="svga-group-nose-single-move" transform="matrix(1,0,0,1,0,0)"><g id="svga-group-nose-single"><path id="SvgjsPath9112" d="M105.06 106.65c.56.92 2.64 3.61 3.09 4.9.45 1.29-.13 3.22-1.48 3.61s-3.61-.39-3.93-.19c-.32.19-1.87 2.06-2.58 1.93-.71-.13-2.64-2.13-3.03-2.13-.39 0-2.13.45-2.97.45-.84 0-2.9-.71-2.64-2.51.26-1.81 2.45-5.54 2.9-6.06.45-.52 1.48-2.32 1.74-3.42s.58-7.03.71-8.38c.13-1.35 1.35-2.97 2.58-3.09 1.23-.13 3.35.77 3.55 2.9.19 2.13.58 6.38.77 8.12.19 1.74.58 2.71 1.29 3.87z" fill="#f0c7b1" stroke-width="none" opacity="1" transform="translate(0 1)" stroke="none"></path><path id="SvgjsPath9113" d="M97.62 85.76c-.84 3.5-.96 7.24-1.34 10.81-.4 3.83-1.14 7.78-1.09 11.63 0 .31.48.39.55.07.78-3.52.88-7.26 1.24-10.84.39-3.82 1.1-7.79.98-11.63 0-.18-.29-.24-.34-.04z" fill="#c27b55" stroke-width="none" opacity="1" transform="translate(0 1)" stroke="none"></path><path id="SvgjsPath9114" d="M94.46 106.19c-1.03 1.37-1.9 2.87-2.65 4.41-.49 1-1.09 2.17-.77 3.32.53 1.89 2.93 2.49 4.5 1.58.47-.27.26-.99-.27-1-.92-.01-1.98.28-2.72-.5-.88-.94-.01-2.63.38-3.57.58-1.39 1.28-2.72 1.83-4.12.07-.19-.2-.26-.3-.12z" fill="#c27b55" stroke-width="none" opacity="1" transform="translate(0 1)" stroke="none"></path><path id="SvgjsPath9115" d="M94.31 113.98c2.84-.21 3.38 3.37 6.07 3.45 2.31.07 2.5-3.41 4.69-3.3.26.01.34-.35.13-.47-2.49-1.47-2.95 2.86-5.24 2.59-1.36-.16-2.32-2.16-3.54-2.73-.83-.39-1.43-.36-2.23.02-.22.09-.11.46.12.44z" fill="#c27b55" stroke-width="none" opacity="1" transform="translate(0 1)" stroke="none"></path><path id="SvgjsPath9116" d="M104.29 115.6c1.87.42 4.05-.16 4.49-2.24.22-1.04-.13-2.07-.67-2.95-.89-1.44-2.03-2.66-2.87-4.15-.14-.25-.49-.12-.51.14-.11 1.67 1.13 2.83 2.02 4.12.82 1.19 1.53 2.83.15 4-.63.54-1.83.44-2.6.59-.26.04-.25.43-.01.49z" fill="#c27b55" stroke-width="none" opacity="1" transform="translate(0 1)" stroke="none"></path><path id="SvgjsPath9117" d="M102.45 109.98c-.41-.74-1.47-.85-2.06-.26-.05.05-.24.29-.3.36-.07.09-.2.26-.23.29-.07.1-.12.21-.18.32l-.12.28c0-.01-.01.01-.03.05-.06.06-.12.13-.18.2-.18.19-.36.38-.5.6-.42.67-.08 1.42.48 1.84.87.65 2.13.13 2.74-.61.76-.89.96-2.03.38-3.07z" fill="#f8d5c3" stroke-width="none" opacity="1" transform="translate(0 1)" stroke="none"></path></g></g><g id="svga-group-hair-front"><path id="SvgjsPath9270" d="M95.5 46.3s-.9 4.4 4.2 5 7.8 7.1 3.6 9.4c0 0 6.7-1 6.7-9.4 0 0 3.3 6.9 8.4 5.6 5.1-1.3 6.5 0 6.5 0s-3.1 1.7-.9 6.9 8.5.7 8.5.7 5.8 5.8 1.4 9.1c0 0 1.1-.2 2.5-1.6 0 0-3.4 5.6-1.8 10.1 1.6 4.4 3.6 3.2 3.1 5.2-.6 1.9-4.7 2.7-3.6 5.4s4.4 3.6 4.4 5.2.4 4-1.6 4.8c0 0 3.3.2 4.2-3.8.9-4 0-5-.2-6.9-.2-1.9 3.3-6.6 5.3-6.6s7.3-3.7 6.4-6.7-2.2-3.5-3.3-6.6 2.9-6.4 4.4-5.2c0 0-3.6-5.4-6.9-2.7 0 0-1.3-.4.4-2.7 1.6-2.3.7-9.4-2.7-10.4s-2.7-4.6-4.2-7.9c-1.4-3.3-6.4-3.7-6.4-3.7s1.4-4.6-2-6.9-7.4 1-8.9-.8-.4-3.9-.4-3.9-3.1.2-3.4 1.5c0 0-1.4-1.4-3.1-4.2s-7.6-3.9-11.4-1c0 0-1.6-4-5.8-4s-6.7 1.7-7.4 4c0 0 4.2-3.7 6.4.8s-5.8 2.9-5.4.6c0 0-1.4 2.9-3.3 2.5S87.8 26 86 25.4c-1.8-.6-4.2.2-5.1 2.5s-4.5 5.2-5.8 3.1c-1.3-2.1.9-3.5.9-3.5s-4.4 1.2-4.4 4.4c0 0-4-1.5-6.2 1.4s-.7 6.5-2.4 6.5-2.9-2.3-4.4.6c-1.5 2.9.5 3.8-.9 4.6s-4.4 1.7-4.4 5c0 0-7.8 4-5.5 8.9s5.5 5.4 3.5 7.9-4 0-4.7 2.9c-.7 2.9.9 2.7 0 4.4s-3.5 2.3-4.2 1c0 0 1.3 2.1 2.5 2.5 1.3.4 4.9-2.5 4.9-2.5s-3.5 2.5-3.3 6-.4 5.6 2 5.8 4.2-2.7 6-1.2c1.8 1.5-.7 1 1.5 4.4s3.1 5 2 6.7c-1.1 1.7.2 3.8 1.6 4.2 0 0-1.1-2.3 0-3.7s2.7-3.8 1.5-6.7-2.9-6.8-1.6-9.3 2.5-4.4 2-6.7-.5-.6 0-.8c.5-.2 2.5 2.1 2 5 0 0 2.7-5.4 1.8-8.1-.9-2.7 0-7.1 2-6.2 2 1 5.1 2.4 6.5.5s1.8-5 1.8-5 3.6 2.3.6 5.8c-3.1 3.5.9 7.7.9 7.7s-1.8-2.9 0-5.4 5.4-4.2 4.7-6.9c-.7-2.7-1.4-4.2-1.4-4.2s1.4-4.2 3.8-2.1-.9 5.4-.9 5.4 4.4-.4 5.4-3.7.6-3.7 1.3-6.2c.9-2.3 2.9 1.3 5.5-4.1z" fill="#74654e" stroke-width="none" opacity="1" stroke="none"></path><path id="SvgjsPath9271" d="M104.6 52.2c-1.2-.8-2.5-1.2-4-1.4-4.7-.8-4.7-4.5-2.6-7.8.1-.2-.2-.4-.3-.3-1.6 1.7-2.7 4.6-1.5 6.9C98 53 107 51 105.6 56.4c-.1.2.3.5.5.3 1.2-1.7.1-3.4-1.5-4.5zM90.8 35c-2.2-.8-4.4-.6-6.5.4-1.7.9-2.7 2.2-4.7 2.6-4.9 1.1-9.1-2.7-6.5-8.1.1-.2-.2-.3-.3-.2-1.9 3.1-1.6 7.3 2.1 8.9 1.6.7 4 .8 5.6.2 1.5-.5 2.3-1.7 3.6-2.5 2.1-1.2 4.2-1.2 6.5-.9.4.1.5-.3.2-.4zm-3.9 5.9c-1.6 1-3 2.3-4.9 2.7-1.6.3-3.2-.2-4.7.6-1.7.8-2.8 2.6-2.6 4.5.2 2.1 1.8 4 4 4.1 1.9.1 3.4-1.3 3.4-3.2 0-.1-.2-.2-.3 0-.8 4.6-7 1.8-6.1-2.1.6-2.8 3.2-2.8 5.5-2.8 2.5-.1 4.5-1.5 6.2-3.3.1-.3-.2-.7-.5-.5zm32.2-9c-3.2-1-3.8-6.4-7.9-5-1.2.4-2.1 1.5-2.9 2.5-1.9 2.7-2.8 5-6.4 5.7-.2 0-.2.4.1.3 2.9-.1 4.6-1.5 6.1-3.9.6-.9 1.1-2.2 1.9-2.8 3.9-3 4.7.3 6.4 2.1.9.9 1.4 1.3 2.6 1.6.3.1.4-.4.1-.5zm4.5 23c-2.3-.1-4.4.9-6.7.5-3.9-.6-6.5-3.5-6.4-7.5 0-.2-.3-.3-.4 0-.6 2.9.6 5.5 3.1 7.2 1.4.9 3 1.4 4.7 1.5 2.9.2 7.1-2.1 8.7 1.7.1.2.4.1.4-.1.5-2.1-1.4-3.2-3.4-3.3zm27.6 21.4c-.4-.9-.9-1.6-1.5-2.2-1.1-1.2-2.7-2.1-1.6-4.5.4-1 1.7-1.8 2.4-2.5.2-.2-.1-.5-.3-.4-1.8 1-3.8 2.4-3.5 4.8.1.9.6 1.5 1.2 2.2 1.9 2.3 3.6 4.1 1.6 7.2-.2.3.2.6.4.4 1.7-1.1 2.1-3 1.3-5zm-6.1-1.5c-.3-2.6-1.9-4.5-4.2-5.5-.2-.1-.4.2-.2.3 2.4 1.6 4.1 4.3 3.5 7.3-.5 2.2-2.2 3.1-3.3 4.8-.8 1.3-.9 2.6.4 3.5.3.2.7-.2.5-.5-1.2-1.6 2.4-4.9 3-6.5.4-1 .5-2.2.3-3.4zm-25.5-38.5c-1.5 0-3.5 1.3-2.5 2.9.1.1.3.1.3 0 .7-2.1 2.7-2.3 4.3-1 2 1.6.3 3.7-1.2 4.6-2.4 1.5-5 1.3-7.3-.4-.3-.2-.5.2-.3.4 2.7 3.3 10.8 1.8 10.7-3.1 0-2-2.1-3.4-4-3.4zm-41 27.9c.1-.8-.1-1.6-.5-2.3-.6-1.2-3-3-2.9-4 0-.2-.3-.3-.4-.1-.3.9-.2 1.3.3 2 .8 1.3 1.9 1.1 2.5 3 .5 1.8-.7 2.9-1.5 4.3-.9 1.7-1.6 3.6.2 5 .2.2.6-.1.4-.3-2-3 1.7-4.8 1.9-7.6zm6.6-8.6c-.6-1.3-2.3-2.7-3.8-2.2-.2.1-.3.4-.1.5 1.1.5 2.2.6 2.9 1.8.8 1.3.5 2.7-.2 3.9-.2.2.2.5.4.3 1.2-1.2 1.4-2.9.8-4.3zm-11.6-7.5c0-.2-.3-.3-.3-.1-.8 2.2.2 4 1.9 5.5 1.1 1 2.4 1.7 3.5 2.6 1.6 1.3 2.1 2.7 2.5 4.7.1.2.4.2.5 0 1.2-6.2-8.9-6.5-8.1-12.7zm-.2 16.4c-3.4 3-8.8-1.4-9.4-5.1 0-.2-.4-.2-.4.1-.1 2.7 2.1 4.8 4.3 6.1 1.8 1.1 4.8 1.7 6-.7 0-.3-.3-.6-.5-.4zm-9 10.9c-.6-1-1.9-1.6-2.5-2.6-1.1-1.8-1.3-3.9-.8-5.9 0-.2-.2-.3-.3-.1-1 2.4-.8 5 .9 7.1 1.6 2 2.3 1.2 1.5 5.1-.3 1.3-.7 1.7.1 3 .1.2.6.1.5-.2-1-2.2 1.9-4.1.6-6.4zM52 63.7c-1.2-1.7-2.4-2.5-2.8-4.7-.4-2.3.2-4.5 1.7-6.3.2-.3-.2-.7-.4-.4-1.6 1.8-2.5 4-2.2 6.4.1 1 .3 2 .8 2.9 1 2 3.5 3.2 2.9 5.7 0 .2.2.4.4.2 1.1-1.2.6-2.5-.4-3.8zm-3.8 4.7c-1.2.7-1.9 1.6-2.1 3-.2.8-.1 1.6-.1 2.3 0 1.7-1.1 2.2-2.6 2.1-.2 0-.4.3-.2.5 1.1.9 2.7.4 3.4-.8.5-.9.3-1.8.3-2.8 0-1.4.3-3 1.5-3.9.3-.1.1-.5-.2-.4zm4.8 16c-.8.5-2.1 1.4-3.1 1.1-1.9-.4-1.9-2-2-3.6 0-2.7.8-4.9 3.3-6.1.3-.1.1-.5-.2-.5-3.9.6-4.7 5.7-4.1 8.9.6 3.3 5 3.1 6.5.6.2-.2-.2-.5-.4-.4zm6.5 15.4c-.9-2-.1-3.8 0-5.7 0-.8.1-1.2-.3-1.8-.4-.7-1.2-1.1-1.8-1.6-2-1.4-2.1-3.6-1.9-5.9 0-.3-.5-.4-.6-.1-.8 2.8-.5 4.2 1.2 6.4 1.1 1.5 1.8-.2 1.6 4.1 0 .6-.3.9-.3 1.5 0 1.4.8 2.4 1.8 3.3.1.1.3 0 .3-.2zm1.7-51.1c.2-.1 0-.4-.2-.3-2.2.8-5.4 3.2-4.7 5.9.1.6.6.9.8 1.4 1.3 2.9.8 2.4-.5 4.3-1 1.5-1.4 2.8-1.3 4.6 0 .4.6.5.7.1.3-1.8 1.1-3.2 2.2-4.7.6-.8 1.2-1.6 1.1-2.7-.1-.8-.7-1.2-1-1.9-1.7-3.7.9-5 2.9-6.7zM70.4 32c-2.4-.9-4.7.7-5.6 2.9-.5 1.2-.6 2.5-.5 3.8.1.8.2 1.5.3 2.2.4 1.3-.1 2.4-1.6 3.1-.5-.1-1-.2-1.6-.3-.3-.1-.5.4-.2.5 1.6 1.1 3.7.6 4.2-1.4.3-1.5-.5-3.3-.5-4.8 0-3.2 1.9-5.9 5.3-5.5.4 0 .4-.4.2-.5zm27.7-6.9c-1.2-2.7-4.7-3.7-6.9-1.7-.2.2.1.5.3.4 1.9-.9 4.3-.7 5.4 1.2 1.1 1.8.4 4.6-2 4.8-.3 0-.3.4-.1.5 1.2.5 2.3-.1 3-1.2.9-1.2.9-2.7.3-4zm6.9 13.4c-.2-.2-.5.1-.3.3 1 1.4-.5 2.9-1.7 3.2-1.2.3-2.4 0-3.4-.8-1.7-1.4-2-3.8-1.9-5.9 0-.3-.4-.3-.5-.1-.6 3.2.6 7.3 4.3 7.7 2.2.4 5.9-2.2 3.5-4.4zm32.1 13.1c-1-.7-2.1-.9-3.2-.7-1.5.2-2.6.7-4.1.3-2.3-.6-3.3-2.5-3.6-4.8 0-.2-.4-.3-.4 0-.5 2.5.9 4.8 3.2 5.6 1.1.4 2.1.3 3.2.1 1.1-.2 1.9-.7 3.1-.4 2.3.5 3 3.1 1.3 4.8-.4.3.2.8.5.5 2-1.4 1.8-4.1 0-5.4zm-3.3 9.3c0-.3-.5-.4-.6-.1-.7 2.3-2.3 4.6-5 4.5-3.2-.1-4.5-3.1-4.2-5.9 0-.2-.3-.3-.4-.1-1.4 3 .8 6.4 3.9 7 3.2.6 6.6-2.1 6.3-5.4zm-.3 3.5c-.2-.2-.5.1-.3.3 1.3 1.9 3.5 6.5.5 8-.3.1-.1.6.2.6 1.6-.1 2.1-1.7 2.1-3.1-.1-2.3-1-4.2-2.5-5.8zm7.1 21.8c-2.6.8-4.2-2.8-4.8-4.6-.5-1.8-.6-3.7-.3-5.5.1-.3-.4-.5-.5-.1-.8 2.7-.5 5.6.8 8.1.9 1.7 2.9 4.4 5.1 2.9.3-.4.2-1-.3-.8zm.1 4.8c-.1-.2-.4-.2-.4.1.1 2.3.8 4.6.2 6.9-.7 2.9-3 4.7-6.1 4-.4-.1-.7.5-.3.7 2.2 1.3 4.9.1 6.2-1.9 2-2.8 1.5-6.7.4-9.8zm7-34.3c-.5-1.9-1.8-3.2-3.6-3.9-.3-.1-.4.3-.2.5 3 2.1 3.8 5.1 2.1 8.4-.4.8-1.1 2.1-.1 2.6.2.1.4 0 .4-.2V64c0-.1 0-.2-.1-.2-.3-.1 1.4-3.3 1.5-3.8.3-1.1.3-2.3 0-3.3zm-10.5-13.6c-.8-2.1-3.4-4.2-5.6-2.5-.2.1 0 .4.2.3 1.8-.5 3.4.4 4.3 2.1.6 1.2.4 2.5-1 2.9-.7.2-1.7.2-2.4.2-.3 0-.3.4-.1.5 2.5 1 5.8-.5 4.6-3.5zM69.9 54.2c-1.1 2.2-4.1 1.4-4.8-.7-.6-1.9.6-3.8 2.3-4.5.4-.2.1-.9-.3-.8-2.9.7-4.3 4.6-2.4 7 .8 1.1 2.2 1.8 3.6 1.6 1.2-.2 2.4-1 2.2-2.3 0-.4-.4-.6-.6-.3z" fill="#65543a" stroke-width="none" opacity="1" stroke="none"></path><path id="SvgjsPath9272" d="M121.1 52.6c-3.8 2.5-7.3-2.7-8.1-5.8-.1-.5-.8-.2-.7.2.4 2.4 1.6 4.7 3.6 6.1 1.7 1.3 3.9 1.7 5.6 0 .3-.2-.1-.7-.4-.5zm1.2-18c-.5-.2-.8.4-.4.7.9.6 1.7 1.4 2.3 2.3.1.1.1.3.2.4-1.7-2.6-5.3-4.5-8-1.3-.2.2.1.5.3.3 1.8-1.6 4.5-1.2 6.1.4 1.3 1.3 2.6 3.8.9 5.4-.2.2 0 .6.3.5 1.1-.5 1.5-1.4 1.4-2.5.2.1.4 0 .4-.2.5-2.5-1.4-5-3.5-6zm10 .9c-.5-1.7-2.1-2.7-3.8-2.4-.3.1-.2.6.1.5 1.6-.2 3 1.1 3.1 2.7.1 1.5-.9 2.5-1.8 3.6-.2.2.1.6.3.4 1.6-.8 2.6-2.9 2.1-4.8zm5.3 7.5c-.2-.1-.5.2-.2.4 1.1.7 1.7 2 1.8 3.3 0 1.1-.5 2.1-.6 3.2 0 .3.4.4.6.2 1.5-2.1 1-5.9-1.6-7.1zm-4.7 9.8c-1.2-.2-2.4.2-3.5 0-1.3-.3-2.4-1.3-3.2-2.3-.2-.2-.5.1-.3.3.8 1.1 1.6 2.1 2.9 2.6 1.8.7 5.2-.7 5.9 1.8.1.3.5.2.5-.1 0-1.3-1.2-2.1-2.3-2.3zm-.3 7.4c-1.2 1.3-2.6 2.7-4.5 2.8-1.8.1-3.5-1.1-3.8-2.9 0-.2-.4-.2-.4 0 .1 1.9 1.4 3.3 3.3 3.6 2.4.4 4.7-1.3 5.7-3.3.2-.1-.1-.4-.3-.2zm7.2 9.9c-.3-.1-.5.3-.2.5 6.9 3.6-6.5 12.3.1 16.5.2.2.6-.2.4-.4-3.1-4.3 1.8-7.5 2.4-11.7.3-2.3-.5-4.2-2.7-4.9zm7.9-4.8c-2.1.6-4 3.5-2.6 5.6.1.2.6.2.6-.2-.1-1-.2-1.9.2-2.9.4-.9 1.1-1.7 2-2.1.3-.1.1-.5-.2-.4zm-5.8-11.4c-.2-.2-.4 0-.3.3 1.2 2.3 3 4.8 1.4 7.4-.2.3.3.5.5.3 1.8-2.7.2-5.9-1.6-8zm-1.4 1.3c-.2-.1-.4.1-.2.3 1.1.9 1.8 2.2 1.8 3.7 0 .2.3.2.4 0 0-1.6-.7-3.2-2-4zm-37.9-14.9c-.8-.3-1.5-.6-2.1-1.3-.6-.7-.8-1.6-.7-2.5.1-.4-.5-.6-.6-.2-.5 2 .9 4.8 3.3 4.5.3-.1.4-.4.1-.5zm7.3-15.7c-2.3-.9-4.8.8-5.8 2.9-.1.3.3.5.4.3 1.2-1.9 3.1-2.6 5.2-2.7.4 0 .5-.4.2-.5zM129 37.8c-.7-1.5-2-3-3.7-3.4-.2 0-.3.2-.1.3 1.5.8 2.8 1.7 3.6 3.2.1.2.3.1.2-.1zm-15.1-7.5c-.5-1-1.8-1-2.6-.3-.6.6-.9 1.5-1.3 2.2-.6 1-1.2 1.9-1.9 2.9-.2.2.2.5.4.3.9-.8 1.6-1.8 2.2-2.8.3-.5.5-.9.7-1.4.3-.6 1.5-2.1 2.2-.8.1.3.3.1.3-.1zm-9.5 20c-1.2-.5-2.5-.6-3.5-1.4-1.3-1-1.8-2.6-1.4-4.2.1-.3-.4-.5-.5-.1-.6 1.6-.4 3.4.9 4.7 1.9 1.9 5.8 1.2 6.7 4.2.1.2.4.2.4-.1 0-1.5-1.2-2.5-2.6-3.1zM95 43c-.6 3-4.6 3.2-6.4 5.3-.1.2 0 .4.2.3 2.3-1.6 6-2.2 6.6-5.4 0-.3-.4-.5-.4-.2zm-9.8 6c-1-.4-1.9-.7-2.9-1-.4-.1-1.2-.3-1.4-.6 0-.3-.1-.7-.1-1 .1-.2.2-.4.4-.5l.5-.5c.2-.2-.1-.5-.3-.3-.8.6-2.1 1.8-1.1 2.9.4.5 1.2.7 1.7.9 1 .3 2 .6 3 .7.4-.1.5-.5.2-.6zm2.8 3.8c-.1-.2-.4-.2-.4 0-.1 1.7-.1 3.2-.8 4.8-.1.3.3.5.4.2.7-1.4 1.2-3.3.8-5zm-14.4-.3c-.2-.5-.8-.3-.7.2 1.1 4.4 7.8 5.9 7.1 10.8 0 .3.4.4.5.1 1.6-5.1-5.7-7-6.9-11.1zm.5 8.1c-.1-.2-.4-.1-.4.1 0 1.8-1.2 3.7-3.2 3.6-.2 0-.3.3-.1.4 1.2.2 2.2-.2 3-1 .7-.9 1.2-2.1.7-3.1zm-4 .5c-2 .5-3.8.4-5.7-.7-.2-.1-.4.2-.2.3 1.6 1.5 4.2 2 6.1.9.3-.2.1-.6-.2-.5zm14.2-23.6c-2.9 1.9-6.1 2.6-9.4 1.3-.3-.1-.5.4-.2.5 3.3 1.5 7.3 1.1 9.9-1.5.2-.1 0-.4-.3-.3zm-.6-4.2c-1.4.6-2.8.8-4.2 0-.3-.2-.6.3-.3.5 1.4.9 3.4 1.1 4.8-.1.1-.2-.1-.5-.3-.4zm37 17.9c-2.5-.5-4.8-1.6-6.1-4-.1-.2-.4-.1-.4.2 1 2.5 3.5 4.7 6.4 4.3.2-.1.3-.5.1-.5zm.9-2.3c-.5.2-.9.4-1.4.4-.5 0-1-.3-1.3-.7-.2-.2-.6.1-.4.3.8 1 2.7 1.5 3.5.2 0-.1-.2-.3-.4-.2zm19.5 8.8c-.2-.3-.6 0-.5.3.6 1.4.9 2.8 1.2 4.4 0 .2.4.2.5 0 .3-1.7-.3-3.4-1.2-4.7zM52.5 62c-.5-.8-1.2-1.6-1.5-2.4-1.1-2.4-.3-3.7 1-5.4.2-.3-.2-.6-.5-.4-1.3 1.5-2.4 3-1.8 5 .3 1.1 1 2 1.6 2.9 1 1.6 1.6 3.2 2 5 .1.3.5.2.5-.1 0-1.6-.5-3.1-1.3-4.6zm1.7 20.8c-1 .3-2.5.9-3.3-.2-.5-.6-.5-1.6-.4-2.3.2-1.7 1.2-3.2 2.3-4.3.3-.3-.2-.8-.5-.5-1.8 1.6-3.3 4-2.8 6.5.5 2.6 3 2.8 4.9 1.4.2-.2.1-.7-.2-.6zm5.6 6.7c-1.7-1.2-3.3-2.4-2.5-4.7.1-.2-.3-.4-.4-.2-.5 1.2-.6 2.5 0 3.6 1 1.7 3.2 2 4 3.9.1.2.5.2.5-.1.1-1.1-.7-1.8-1.6-2.5zm5.3-17.8c-.3-1.1-1.1-2.1-1.4-3.2-.6-1.9-.2-3.8.5-5.7.1-.2-.3-.5-.5-.3-1.4 1.8-1.8 4-1 6.2.6 1.7 1.8 2.9 1.7 4.8-.1 1.3-.9 2.5-.9 3.9 0 .2.3.2.3 0 .4-1.9 1.8-3.7 1.3-5.7zm43.5-21.4c0-.2-.4-.2-.4.1.1 3.8-.2 8.5-4.6 9.7-.3.1-.2.5.1.4 4.7-.8 5.6-6.1 4.9-10.2zm-38.8-.4c-1.3-.4-2.8.2-3.2 1.5-.4 1.2.1 2.8 1.4 3.2.3.1.5-.3.3-.5-.6-.6-1.1-1.4-.9-2.3.2-.9 1.3-1.5 2.2-1.3.5.2.7-.5.2-.6zm-.4-16.4c-1.6 1.7-2.9 4.3-2.4 6.7.1.2.4.2.4 0 .3-2.4.7-4.4 2.4-6.2.2-.3-.2-.7-.4-.5z" fill="#837865" stroke-width="none" opacity="1" stroke="none"></path></g><g id="svga-group-glasses-single-move" transform="matrix(1,0,0,1,0,0)"><g id="svga-group-glasses-single"></g></g></g></g></g><rect id="svga-credit-rect" width="200" height="15" x="0" y="185" fill="#ecf0f1" opacity="0.5" style="display: none;"></rect><text id="svga-credit-text" font-family="Avenir Next, Roboto, Helvetica, Arial, sans-serif" font-size="10px" text-anchor="start" font-weight="400" size="10px" anchor="start" weight="400" fill="#333333" x="33.43669891357422" y="182.60824704170227" style="display: none;"><tspan id="SvgjsTspan8907" dy="13" x="33.43669891357422">Created on AvatarMaker.com</tspan></text></g><defs id="SvgjsDefs8854"></defs></svg>